<?xml version="1.0" encoding="UTF-8"?>
<svg version="1.1" xmlns="http://www.w3.org/2000/svg" width="512" height="512">
<path d="M0 0 C168.96 0 337.92 0 512 0 C512 168.96 512 337.92 512 512 C343.04 512 174.08 512 0 512 C0 343.04 0 174.08 0 0 Z " fill="#FEFEFE" transform="translate(0,0)"/>
<path d="M0 0 C-2.61837731 9.00011294 -5.60179324 17.86729227 -8.59570312 26.74804688 C-8.97533203 27.87919922 -9.35496094 29.01035156 -9.74609375 30.17578125 C-10.08310303 31.17520752 -10.4201123 32.17463379 -10.76733398 33.2043457 C-11.83756071 36.49981311 -12.86139567 39.80378271 -13.87255859 43.11767578 C-15.90929344 49.76154692 -18.08070023 56.35422458 -20.29296875 62.94140625 C-20.68446609 64.11211166 -21.07596344 65.28281708 -21.47932434 66.48899841 C-22.71390783 70.18066129 -23.9504565 73.87166079 -25.1875 77.5625 C-26.82854554 82.45906098 -28.46760697 87.35627955 -30.10546875 92.25390625 C-30.48148727 93.37366348 -30.8575058 94.49342072 -31.24491882 95.64710999 C-31.59230606 96.68596848 -31.9396933 97.72482697 -32.29760742 98.79516602 C-32.60309006 99.70637711 -32.90857269 100.6175882 -33.22331238 101.55641174 C-33.90234632 103.6927653 -34.48731953 105.81863852 -35 108 C-33.49264282 107.75878418 -33.49264282 107.75878418 -31.95483398 107.51269531 C-11.75139386 104.89356918 10.0273928 106.59463192 30 110 C31.19157715 110.19335938 32.3831543 110.38671875 33.61083984 110.5859375 C52.17099718 113.64584895 72.3547013 117.02962785 89.06176758 126.12207031 C91.25264232 127.27506731 91.25264232 127.27506731 95 127 C95.90809224 125.58741208 96.80951685 124.16985613 97.66796875 122.7265625 C100.3336161 119.27138324 104.27496562 117.17730883 108 115 C108.59296875 114.62101562 109.1859375 114.24203125 109.796875 113.8515625 C115.66319688 111.58408348 124.59644885 112.09375945 130.58203125 113.6875 C132.5824745 114.63445539 134.23998365 115.6604091 136 117 C136.93392578 117.70576172 136.93392578 117.70576172 137.88671875 118.42578125 C141.42552343 121.29688693 144.19614511 124.39765599 147 128 C147.67160156 127.64808594 148.34320313 127.29617188 149.03515625 126.93359375 C182.27457172 110.50688907 221.81536331 106.73749373 258.375 106.9375 C259.99739443 106.94253144 261.6197904 106.9470914 263.2421875 106.95117188 C267.16149721 106.96203258 271.08073094 106.97920388 275 107 C272.83740373 100.31117725 270.67046896 93.62377232 268.5 86.9375 C268.01963791 85.45748505 268.01963791 85.45748505 267.52957153 83.9475708 C263.93592867 72.88567172 260.32329951 61.83833118 256.4375 50.875 C254.03388148 44.09329577 251.82559014 37.30160687 249.87426758 30.37597656 C248.72636321 26.33949717 247.46421666 22.36162776 246.10546875 18.390625 C245.61445679 16.95517334 245.61445679 16.95517334 245.11352539 15.49072266 C244.46568637 13.61264549 243.81019038 11.7371882 243.14624023 9.86474609 C242.85305908 9.01477051 242.55987793 8.16479492 242.2578125 7.2890625 C241.9911377 6.53318848 241.72446289 5.77731445 241.44970703 4.99853516 C241 3 241 3 242 0 C254.47773497 4.34675194 264.16805469 11.52026886 270.01806641 23.6171875 C271.94198349 28.28586743 273.08042375 33.17524 274.3125 38.0625 C276.54021709 46.62076702 278.87634424 55.11693958 281.5 63.5625 C284.27319963 72.51634923 286.85941092 81.50975952 289.35961914 90.54345703 C291.77172392 99.24341063 294.29264798 107.90901759 296.8671875 116.56225586 C297.14691406 117.50979736 297.42664063 118.45733887 297.71484375 119.43359375 C298.08790649 120.68740845 298.08790649 120.68740845 298.46850586 121.96655273 C299 124 299 124 299 126 C292.77994648 125.52322871 286.57918067 124.9713938 280.3828125 124.24609375 C265.31375803 122.53462394 250.47758784 121.7139797 235.3125 121.75 C234.47454895 121.75095673 233.6365979 121.75191345 232.77325439 121.75289917 C230.3864507 121.75926813 227.99999175 121.77525166 225.61328125 121.796875 C224.90108932 121.80125076 224.1888974 121.80562653 223.4551239 121.81013489 C220.14179083 121.8576235 217.18463865 122.09834349 214 123 C212.57050235 123.14026988 211.13735016 123.24587741 209.703125 123.32421875 C197.78318867 124.09871887 186.1641163 125.66985564 174.4375 127.875 C173.4397052 128.05946182 173.4397052 128.05946182 172.42175293 128.24765015 C164.05268243 129.80648575 155.95103448 131.75381221 147.81274414 134.23486328 C145 135 145 135 142 135 C141.484375 133.80375 140.96875 132.6075 140.4375 131.375 C137.76759582 126.03519163 134.0108572 122.45557997 128.640625 119.859375 C122.59376022 117.89146043 115.46587726 117.94029499 109.625 120.5625 C104.04416207 123.84124228 99.88503922 128.77937056 98 135 C92.63781356 133.81560497 87.28217492 132.60643076 81.9296875 131.37890625 C55.02442213 125.25700104 28.57200542 121.7847349 0.9375 121.6875 C0.11281219 121.68355225 -0.71187561 121.67960449 -1.56155396 121.67553711 C-20.52941059 121.63376919 -39.20595228 123.59497594 -58 126 C-57.39817715 120.0782127 -56.22061681 114.61112833 -54.57910156 108.89697266 C-54.33339417 108.02429245 -54.08768677 107.15161224 -53.83453369 106.25248718 C-53.02605001 103.38789539 -52.20881916 100.52589467 -51.390625 97.6640625 C-50.82087527 95.65927575 -50.25136002 93.65442235 -49.68206787 91.64950562 C-48.48909155 87.45395618 -47.29144071 83.25977428 -46.09082031 79.06640625 C-44.55919077 73.71453684 -43.04204688 68.35868305 -41.52878189 63.00159645 C-40.3568804 58.86100807 -39.17581052 54.72307599 -37.99217987 50.58582687 C-37.42932999 48.61332587 -36.86960619 46.63992987 -36.31317902 44.66560745 C-31.62619658 28.06034944 -27.37712593 13.30387238 -11.6875 4 C-4.45601852 0 -4.45601852 0 0 0 Z " fill="#1B05AE" transform="translate(133,195)"/>
<path d="M0 0 C5.69867637 4.74164675 8.34491122 10.26780391 9.30053711 17.66723633 C10.06637088 27.78727004 9.30374712 36.28041253 3.046875 44.703125 C-3.36077524 51.57628829 -11.60562119 53.69628251 -20.75415039 54.15673828 C-29.82502365 54.35961832 -38.01850947 52.91517183 -45.140625 46.8359375 C-51.89156264 39.60680845 -53.46590601 32.89475077 -53.390625 23.265625 C-53.41060547 22.36263672 -53.43058594 21.45964844 -53.45117188 20.52929688 C-53.44578688 13.09261532 -51.72483994 7.93852909 -46.875 2.27734375 C-33.82297755 -9.06101388 -14.4351471 -10.25393208 0 0 Z " fill="#1B04AE" transform="translate(272.953125,356.296875)"/>
<path d="M0 0 C2 1 2 1 2.67016602 2.74658203 C2.86280029 3.49278809 3.05543457 4.23899414 3.25390625 5.0078125 C3.57584961 6.24144531 3.57584961 6.24144531 3.90429688 7.5 C4.12150391 8.36625 4.33871094 9.2325 4.5625 10.125 C4.78357422 10.96804687 5.00464844 11.81109375 5.23242188 12.6796875 C10.84621514 34.52429694 8.62253478 56.03172902 -2.13671875 75.9375 C-5.03755877 80.70533769 -8.2322154 84.88625855 -12 89 C-12.45616699 89.49854492 -12.91233398 89.99708984 -13.38232422 90.51074219 C-29.15837209 107.53376531 -48.89974668 118.85529944 -68.60546875 130.79296875 C-85.40301164 141.0198075 -104.82179486 153.71869652 -110 174 C-110.70249806 176.99303753 -111.37136822 179.99059253 -112 183 C-112.33 183 -112.66 183 -113 183 C-113.66066138 160.97795395 -108.94824074 146.32676067 -93.9453125 129.7265625 C-84.93889059 120.32425391 -74.14056576 113.04576904 -63.52294922 105.60888672 C-36.40945843 86.57771148 -7.27833232 65.54836704 -0.609375 30.94921875 C0.91530595 20.77391159 0.30740098 10.25182279 0 0 Z " fill="#5ABDEB" transform="translate(307,89)"/>
<path d="M0 0 C10.93724264 2.44342655 19.41530749 7.84614244 26.08300781 16.93652344 C28.11064965 20.17682524 29.41308007 23.24754775 30.7265625 26.8359375 C30.97622772 27.51727249 31.22589294 28.19860748 31.48312378 28.90058899 C34.85414501 38.20579759 37.95612291 47.60679275 41.06884766 57.00073242 C42.12705878 60.19371204 43.19011646 63.38504706 44.25390625 66.57617188 C47.3129885 75.76983211 50.34428446 84.9635274 53.14990234 94.23803711 C54.88116338 99.86289528 56.8077689 105.42426307 58.70703125 110.99414062 C59.00480469 111.87650391 59.30257812 112.75886719 59.609375 113.66796875 C59.87717773 114.45453857 60.14498047 115.2411084 60.42089844 116.05151367 C61 118 61 118 61 120 C59.97567871 120.00410889 58.95135742 120.00821777 57.89599609 120.01245117 C22.81959043 120.22307769 -12.71273006 122.28819873 -44.11328125 139.59375 C-45.06589844 140.0578125 -46.01851563 140.521875 -47 141 C-47.66 140.67 -48.32 140.34 -49 140 C-29.92917176 124.65762582 -7.01000304 115.89675455 17 112 C17.94230469 111.81308594 18.88460937 111.62617188 19.85546875 111.43359375 C23.88380802 110.8781333 27.81563177 110.89312888 31.875 110.9375 C33.32437875 110.94900234 34.77376053 110.96012686 36.22314453 110.97094727 C37.46950684 110.98053467 38.71586914 110.99012207 40 111 C39.72569153 110.25486145 39.45138306 109.5097229 39.16876221 108.74200439 C33.85421122 94.29715108 28.56582676 79.84357579 23.359375 65.359375 C23.12852707 64.71744705 22.89767914 64.0755191 22.65983582 63.41413879 C20.54538183 57.53422638 18.43257933 51.65372272 16.32324219 45.77197266 C14.92104092 41.86273417 13.51623999 37.95443743 12.109375 34.046875 C11.66597778 32.81529663 11.22258057 31.58371826 10.76574707 30.31481934 C7.94438174 22.51476061 5.03591999 14.75631646 1.94134521 7.0602417 C0 2.19883421 0 2.19883421 0 0 Z " fill="#0E7BBE" transform="translate(334,173)"/>
<path d="M0 0 C-5.19375304 14.98018554 -10.5475171 29.90018213 -15.95092773 44.8059082 C-17.30150353 48.53216063 -18.64989431 52.25919839 -19.99804688 55.98632812 C-23.58987278 65.90648857 -27.18350822 75.82552084 -30.86083984 85.71435547 C-31.20895422 86.65096024 -31.20895422 86.65096024 -31.56410122 87.60648632 C-32.67273231 90.5876244 -33.78443341 93.56756865 -34.90022278 96.54603577 C-35.2930394 97.59939621 -35.68585602 98.65275665 -36.09057617 99.73803711 C-36.43626144 100.66087997 -36.78194672 101.58372284 -37.1381073 102.53453064 C-37.88793937 104.67944728 -38.49578258 106.78645176 -39 109 C-37.04320312 108.96519531 -37.04320312 108.96519531 -35.046875 108.9296875 C-30.35959554 108.93517612 -25.87365849 109.38406096 -21.25 110.125 C-20.44288574 110.25406738 -19.63577148 110.38313477 -18.80419922 110.51611328 C4.53224127 114.52112081 29.55000688 122.69043124 48 138 C47.34 138.33 46.68 138.66 46 139 C43.72236818 138.06305809 41.53121103 137.06220961 39.3125 136 C25.50962901 129.71236157 10.86728216 125.53354701 -4 122.625 C-4.78656982 122.46942627 -5.57313965 122.31385254 -6.38354492 122.15356445 C-19.2166499 119.8379655 -32.42967252 119.81496272 -45.4375 119.4375 C-46.86263774 119.39412695 -48.28776802 119.35050811 -49.71289062 119.30664062 C-53.14184633 119.20161157 -56.57088897 119.09984585 -60 119 C-59.40942021 114.01521616 -58.35952062 109.56312288 -56.77856445 104.77392578 C-56.55397049 104.08819992 -56.32937653 103.40247406 -56.09797668 102.69596863 C-55.35873364 100.44384328 -54.61114518 98.19458832 -53.86328125 95.9453125 C-53.34053629 94.35951706 -52.81826177 92.77356648 -52.2964325 91.18746948 C-51.20126864 87.86272181 -50.1022968 84.53926737 -49.00024414 81.21679688 C-47.60449436 77.00877114 -46.21526511 72.79863312 -44.82861042 68.58760262 C-43.48836061 64.51855948 -42.14465279 60.45066062 -40.80078125 56.3828125 C-40.55253412 55.63039402 -40.30428699 54.87797554 -40.04851723 54.1027565 C-38.38393363 49.0622847 -36.70313198 44.02758232 -35 39 C-34.74073605 38.23426414 -34.48147209 37.46852829 -34.21435165 36.67958832 C-33.42632982 34.36443162 -32.62918501 32.05262757 -31.82885742 29.74169922 C-31.59073743 29.04186983 -31.35261744 28.34204044 -31.10728168 27.6210041 C-26.81861707 15.35729947 -18.48025183 6.71948685 -7.0625 0.734375 C-4.61310229 -0.13775903 -2.58302668 -0.05000093 0 0 Z " fill="#0E7BBE" transform="translate(172,174)"/>
<path d="M0 0 C-0.65491359 3.73569303 -1.6813398 7.14152558 -2.98681641 10.70019531 C-3.39929123 11.83013412 -3.81176605 12.96007294 -4.23674011 14.12425232 C-4.91232719 15.9576693 -4.91232719 15.9576693 -5.6015625 17.828125 C-6.07574201 19.12289492 -6.54959671 20.41778384 -7.02314758 21.71278381 C-8.03047461 24.46536124 -9.04007021 27.21709148 -10.05148315 29.96817017 C-11.62744328 34.25496211 -13.19800204 38.54372022 -14.76782227 42.83276367 C-19.08089385 54.61312481 -23.40613292 66.38900647 -27.73773193 78.16256714 C-29.1507022 82.00408246 -30.56173153 85.84630922 -31.97259521 89.68859863 C-32.92317875 92.2735557 -33.87769005 94.85703852 -34.83251953 97.44042969 C-35.39761525 98.9771568 -35.96256679 100.51393695 -36.52734375 102.05078125 C-36.78244217 102.73729263 -37.03754059 103.42380402 -37.30036926 104.13111877 C-38.57910281 107.477682 -38.57910281 107.477682 -39 111 C-37.87464844 111.40089844 -36.74929687 111.80179687 -35.58984375 112.21484375 C-14.78062532 119.83075319 3.5473588 130.75327293 15 150.4375 C15.33 151.283125 15.66 152.12875 16 153 C15.67 153.66 15.34 154.32 15 155 C14.278125 154.05125 13.55625 153.1025 12.8125 152.125 C-4.56130088 132.03780831 -33.31843686 121.33827269 -59 118 C-58.39319055 112.32037696 -56.9152175 107.31931318 -55.015625 101.9453125 C-54.71815369 101.08549774 -54.42068237 100.22568298 -54.11419678 99.33981323 C-53.16542443 96.59942829 -52.20843964 93.86201735 -51.25 91.125 C-47.53382905 80.48271478 -43.86944291 69.86239238 -40.75578308 59.02626038 C-38.7238615 51.96870153 -36.43457245 45.01383395 -34.0625 38.0625 C-33.65837891 36.83982422 -33.25425781 35.61714844 -32.83789062 34.35742188 C-27.98838507 20.14493394 -21.45061099 9.2491714 -8 2 C-4.93559774 0.56994561 -3.38480801 0 0 0 Z " fill="#5ABDEB" transform="translate(210,156)"/>
<path d="M0 0 C0.91644287 0.00523682 1.83288574 0.01047363 2.77709961 0.01586914 C4.26113281 0.02070313 4.26113281 0.02070313 5.77514648 0.02563477 C6.81606445 0.03401367 7.85698242 0.04239258 8.92944336 0.05102539 C10.49662109 0.05779297 10.49662109 0.05779297 12.09545898 0.06469727 C14.68600996 0.07652627 17.27644895 0.0930085 19.86694336 0.11352539 C24.49291773 11.8968187 29.00060745 23.71843251 33.37646484 35.59692383 C34.32485336 38.16887563 35.2784759 40.73885223 36.23217773 43.30883789 C36.83861265 44.95195079 37.44474473 46.59517549 38.05053711 48.23852539 C38.33481064 49.00293945 38.61908417 49.76735352 38.91197205 50.55493164 C40.86694336 55.88462267 40.86694336 55.88462267 40.86694336 58.11352539 C34.26694336 58.11352539 27.66694336 58.11352539 20.86694336 58.11352539 C20.20694336 55.47352539 19.54694336 52.83352539 18.86694336 50.11352539 C11.93694336 50.11352539 5.00694336 50.11352539 -2.13305664 50.11352539 C-2.79305664 52.75352539 -3.45305664 55.39352539 -4.13305664 58.11352539 C-10.40305664 58.11352539 -16.67305664 58.11352539 -23.13305664 58.11352539 C-21.17032188 50.57579686 -18.87935485 43.30627968 -16.15649414 36.01196289 C-15.78577789 35.00888092 -15.41506165 34.00579895 -15.03311157 32.97232056 C-14.25714594 30.87581648 -13.47891333 28.78015015 -12.69848633 26.68530273 C-11.49902408 23.46426937 -10.30772088 20.2403021 -9.11743164 17.01586914 C-8.36009307 14.97272465 -7.60229738 12.92974954 -6.84399414 10.88696289 C-6.48671234 9.92043793 -6.12943054 8.95391296 -5.76132202 7.95809937 C-5.43072784 7.07272491 -5.10013367 6.18735046 -4.75952148 5.27514648 C-4.46878754 4.49336029 -4.17805359 3.7115741 -3.87850952 2.90609741 C-2.73042134 0.14531829 -2.73042134 0.14531829 0 0 Z " fill="#1B05AE" transform="translate(310.133056640625,350.886474609375)"/>
<path d="M0 0 C0.33 0 0.66 0 1 0 C2.1279022 18.50595088 -5.26685515 34.05375028 -16.68359375 48.06640625 C-32.71761622 65.29998153 -57.13536551 72.40444944 -78.68896484 79.77612305 C-95.20662191 85.47907013 -113.69825258 92.23159859 -124.78125 106.45703125 C-126.08012951 108.10144601 -127.49556564 109.54367256 -129 111 C-126.64313598 96.38744306 -117.17346818 85.41501256 -105.4375 76.875 C-98.04830452 71.7041591 -90.17591839 67.76071246 -82 64 C-81.1853125 63.62407715 -80.370625 63.2481543 -79.53125 62.86083984 C-70.94222927 58.9107311 -62.32328613 55.0283091 -53.6796875 51.19921875 C-30.93319129 41.05598453 -12.40782416 29.66153774 -2 6 C-1.28228718 4.01774554 -0.5861979 2.02504728 0 0 Z " fill="#F19F26" transform="translate(331,165)"/>
<path d="M0 0 C0.66 0 1.32 0 2 0 C3.78016498 5.31549263 5.55822779 10.63168245 7.33447266 15.94848633 C7.93710669 17.75140667 8.54028243 19.55414604 9.14404297 21.35668945 C12.21334397 30.52132701 15.244936 39.68591644 18.04785156 48.9362793 C20.21239296 55.9011075 22.6241591 62.78909112 24.99609375 69.68554688 C25.38410156 70.83216797 25.77210938 71.97878906 26.171875 73.16015625 C26.6992627 74.70135132 26.6992627 74.70135132 27.23730469 76.27368164 C28 79 28 79 28 83 C26.98164063 83.14695312 25.96328125 83.29390625 24.9140625 83.4453125 C-3.46482384 87.82016472 -28.00189291 100.16863845 -48 121 C-39.7070637 98.79247347 -19.42107142 87.32515856 1 78 C3.32935652 76.99042273 5.66418159 75.99461105 8 75 C7.75974594 74.34711502 7.51949188 73.69423004 7.2719574 73.02156067 C5.00764778 66.86154438 2.75532988 60.69729213 0.51631069 54.52803516 C-0.6351586 51.35665566 -1.79116212 48.18708782 -2.95776367 45.02124023 C-4.29732478 41.37897429 -5.62087157 37.73123149 -6.94140625 34.08203125 C-7.57255089 32.38177544 -7.57255089 32.38177544 -8.21644592 30.64717102 C-8.59691574 29.58644882 -8.97738556 28.52572662 -9.36938477 27.43286133 C-9.70913834 26.50242508 -10.04889191 25.57198883 -10.39894104 24.61335754 C-11.07830267 21.65954608 -10.86950959 19.88407235 -10 17 C-8.4765625 14.5703125 -8.4765625 14.5703125 -6.625 12.125 C-3.74873185 8.17972869 -1.68846154 4.56877829 0 0 Z " fill="#5BBDEB" transform="translate(327,191)"/>
<path d="M0 0 C6.29258179 4.56681775 10.22446286 9.04809556 11.78125 16.83203125 C12.60502091 23.64686331 11.30920439 28.944471 7.78125 34.83203125 C4.35406372 38.87435353 0.91186843 42.33914842 -4.4765625 43.1875 C-10.95746392 43.5541565 -15.3407887 42.13412212 -20.21875 37.83203125 C-25.49559351 31.30540901 -26.85134793 25.01267269 -26.21875 16.83203125 C-25.23893209 9.97330585 -21.29999392 5.32732993 -16.21875 0.83203125 C-10.98519427 -1.75193435 -5.34245563 -2.81231379 0 0 Z " fill="#F29F25" transform="translate(258.21875,121.16796875)"/>
<path d="M0 0 C6.27 0 12.54 0 19 0 C19 19.14 19 38.28 19 58 C12.73 58 6.46 58 0 58 C0 38.86 0 19.72 0 0 Z " fill="#1D07AE" transform="translate(190,351)"/>
<path d="M0 0 C4.26946031 1.76347274 5.99787564 3.89452027 8 8 C8.3984375 11.55859375 8.3984375 11.55859375 8.375 15.4375 C8.38273437 16.71496094 8.39046875 17.99242187 8.3984375 19.30859375 C7.87436297 24.16399017 6.56772368 27.6167144 2.875 30.875 C-1.17078778 32.45813435 -4.7182763 32.82022475 -9 32 C-12.5694752 30.063133 -14.69404468 27.91786596 -16 24 C-16.20056689 21.21212018 -16.32284555 18.47776317 -16.375 15.6875 C-16.43107422 14.56698242 -16.43107422 14.56698242 -16.48828125 13.42382812 C-16.55331605 9.30857065 -16.24480532 6.77163273 -13.6015625 3.51953125 C-9.3100221 -0.63669031 -5.76890631 -0.54989575 0 0 Z " fill="#FBFAFD" transform="translate(255,364)"/>
<path d="M0 0 C0 3 0 3 -1.0625 5.25 C-2.33491769 8.98242522 -1.98607854 11.18716297 -1 15 C0.4990767 17.52969193 2.16028478 19.68856293 4 22 C3.360625 21.835 2.72125 21.67 2.0625 21.5 C-3.96413699 20.46326007 -3.96413699 20.46326007 -10 21 C-12.75370096 23.01367529 -14.88507804 25.33424627 -17 28 C-17 25 -17 25 -15.9375 22.25 C-14.62447971 17.69819634 -15.25741516 14.1135107 -16.8125 9.6875 C-18.26934569 7.6172456 -19.67528188 6.92988725 -22 6 C-21.34 5.67 -20.68 5.34 -20 5 C-19.0925 5.309375 -18.185 5.61875 -17.25 5.9375 C-13.66790662 7.10856899 -11.72113361 7.66980405 -8 7 C-5.10128332 4.89422937 -2.53740598 2.52452575 0 0 Z " fill="#6DFF0D" transform="translate(313,62)"/>
<path d="M0 0 C2.83443922 2.83443922 3.49801967 6.25213519 4.625 10 C4.85445313 10.73734375 5.08390625 11.4746875 5.3203125 12.234375 C7 17.71335565 7 17.71335565 7 20 C2.71 20 -1.58 20 -6 20 C-4.35873462 13.12231652 -2.64714293 6.55483011 0 0 Z " fill="#EBE9F8" transform="translate(318,368)"/>
<path d="M0 0 C0.66 0 1.32 0 2 0 C2.268125 0.78375 2.53625 1.5675 2.8125 2.375 C3.84814432 5.28114923 3.84814432 5.28114923 7 7 C2.25 11.875 2.25 11.875 0 13 C-0.268125 12.401875 -0.53625 11.80375 -0.8125 11.1875 C-1.98493467 9.02775192 -3.19369282 7.64209744 -5 6 C-3.68 5.67 -2.36 5.34 -1 5 C-0.67 3.35 -0.34 1.7 0 0 Z " fill="#72FF15" transform="translate(278,104)"/>
<path d="M0 0 C2.43816531 1.32933741 4.64364067 2.91422212 6.875 4.5625 C7.46796875 4.98724609 8.0609375 5.41199219 8.671875 5.84960938 C10.12154965 6.89010166 11.56177551 7.9437372 13 9 C12.01 9.495 12.01 9.495 11 10 C8.29646069 8.94682582 5.69325306 7.8374139 3.0625 6.625 C1.61634787 5.97033166 0.16974979 5.3166473 -1.27734375 4.6640625 C-1.91921631 4.36967285 -2.56108887 4.0752832 -3.22241211 3.77197266 C-5.17700569 2.89219728 -5.17700569 2.89219728 -8 2 C-8 1.34 -8 0.68 -8 0 C-4.99345695 -1.50327153 -3.23185748 -0.82897526 0 0 Z " fill="#2386C3" transform="translate(207,303)"/>
<path d="M0 0 C0.33 0.66 0.66 1.32 1 2 C0 5 0 5 -1.55053711 6.09082031 C-2.2028833 6.41663086 -2.85522949 6.74244141 -3.52734375 7.078125 C-4.59178711 7.61179687 -4.59178711 7.61179687 -5.67773438 8.15625 C-6.42345703 8.5171875 -7.16917969 8.878125 -7.9375 9.25 C-8.67935547 9.62640625 -9.42121094 10.0028125 -10.18554688 10.390625 C-12.09079893 11.33029601 -14.04320375 12.1730082 -16 13 C-16.66 12.67 -17.32 12.34 -18 12 C-12.16594374 7.65346984 -6.4266106 3.42752566 0 0 Z " fill="#2788C4" transform="translate(303,301)"/>
<path d="M0 0 C0.33 0 0.66 0 1 0 C1.18451025 10.55808656 1.18451025 10.55808656 0 15 C-0.33 14.34 -0.66 13.68 -1 13 C-2.32 13.33 -3.64 13.66 -5 14 C-3.35 9.38 -1.7 4.76 0 0 Z " fill="#F3A739" transform="translate(331,165)"/>
<path d="M0 0 C3.40644598 6.81289197 2.89016325 10.8298766 1 18 C0.67 18 0.34 18 0 18 C0 12.06 0 6.12 0 0 Z " fill="#6BC3ED" transform="translate(194,254)"/>
<path d="M0 0 C0.33 0.66 0.66 1.32 1 2 C1.66 2 2.32 2 3 2 C1.60667426 5.36720387 0.0210714 6.9859524 -3 9 C-2.01 6.03 -1.02 3.06 0 0 Z " fill="#89FF3E" transform="translate(298,81)"/>
<path d="M0 0 C2.64 0.66 5.28 1.32 8 2 C7.34 3.32 6.68 4.64 6 6 C5.34 5.67 4.68 5.34 4 5 C4 4.34 4 3.68 4 3 C2.68 2.34 1.36 1.68 0 1 C0 0.67 0 0.34 0 0 Z " fill="#84FF36" transform="translate(291,67)"/>
</svg>
